# xmcd CD database file
#
# Track frame offsets:
#	183
#	17460
#	30135
#	40263
#	57110
#	72558
#	85168
#	97498
#	115860
#	127945
#	142730
#	159035
#	176715
#	190818
#
# Disc length: 2720 seconds
#
# Revision: 0
# Processed by: cddbd v1.5.2PL0 Copyright (c) Steve Scherf et al.
# Submitted via: CDex 1.70beta2
#
DISCID=ab0a9e0e
DTITLE=West Virginian Railroad - The way we are
DYEAR=1985
DGENRE=Country
TTITLE0=Tonight the bottle let me down
TTITLE1=First of the last
TTITLE2=Who were you thinkin of
TTITLE3=Union Mare and Confederate grey
TTITLE4=When I love you the most
TTITLE5=The monkey
TTITLE6=I'll take the blame
TTITLE7=Like to stay, alone
TTITLE8=After the storm
TTITLE9=Silver dish café
TTITLE10=When my blue moon turns to gold
TTITLE11=My Oklahoma
TTITLE12=Lay down beside me
TTITLE13=Ride on cowboy
EXTD=YEAR: 1985
EXTT0=
EXTT1=
EXTT2=
EXTT3=
EXTT4=
EXTT5=
EXTT6=
EXTT7=
EXTT8=
EXTT9=
EXTT10=
EXTT11=
EXTT12=
EXTT13=
PLAYORDER=
